<?xml version="1.0" standalone="no"?>
<!DOCTYPE svg PUBLIC "-//W3C//DTD SVG 20010904//EN"
 "http://www.w3.org/TR/2001/REC-SVG-20010904/DTD/svg10.dtd">
<svg version="1.0" xmlns="http://www.w3.org/2000/svg"
 width="320.000000pt" height="320.000000pt" viewBox="0 0 320.000000 320.000000"
 preserveAspectRatio="xMidYMid meet">
<metadata>
Created by potrace 1.14, written by Peter Selinger 2001-2017
</metadata>
<g transform="translate(0.000000,320.000000) scale(0.100000,-0.100000)"
fill="#000000" stroke="none">
<path d="M1228 3076 c-197 -86 -319 -186 -410 -337 -60 -99 -108 -243 -123
-371 -7 -55 -8 -56 -44 -63 -74 -14 -130 -69 -168 -165 -13 -34 -17 -76 -17
-175 -1 -124 1 -134 32 -211 48 -121 106 -164 220 -164 54 0 62 -3 109 -43 28
-24 75 -61 104 -83 30 -21 74 -59 99 -85 25 -25 71 -67 103 -95 l57 -49 -15
-46 c-13 -39 -22 -48 -51 -57 -20 -6 -41 -9 -48 -6 -6 2 -86 -9 -176 -26 -91
-16 -180 -30 -198 -30 -40 0 -99 -24 -130 -53 -13 -12 -35 -44 -49 -70 -23
-45 -25 -64 -33 -280 -5 -128 -12 -251 -16 -274 -6 -40 -5 -43 28 -62 l34 -21
13 -125 c16 -161 21 -179 51 -183 17 -3 21 0 17 12 -9 24 -40 267 -34 272 2 2
28 -1 57 -7 52 -11 204 -7 265 7 52 12 14 -15 -41 -29 -62 -16 -144 -63 -144
-82 0 -25 19 -27 49 -5 55 39 111 53 214 54 99 1 99 1 120 -29 12 -17 43 -53
69 -81 27 -29 51 -65 54 -82 l6 -32 349 0 c299 0 349 2 349 15 0 38 355 84
413 54 32 -17 32 -17 8 -43 l-23 -24 215 -1 214 -2 38 42 c68 76 124 233 125
349 0 113 -37 240 -96 329 -16 24 -34 52 -40 62 -32 56 -75 83 -155 100 -28 6
-67 22 -87 35 -60 41 -134 27 -209 -40 -46 -41 -51 -43 -128 -49 l-81 -6 -24
46 c-33 62 -77 91 -215 143 l-118 43 54 14 c30 8 78 28 107 46 92 55 280 266
323 362 23 52 39 150 39 243 0 67 2 75 28 97 26 22 27 28 30 130 4 96 6 108
23 112 26 7 26 53 0 53 -12 0 -21 9 -25 24 -4 15 -17 28 -37 35 -26 9 -30 15
-26 34 12 44 36 213 46 311 l10 100 -31 65 c-52 110 -170 212 -300 260 -22 8
-28 17 -28 41 0 28 -2 29 -26 20 -39 -15 -51 -12 -63 18 -7 15 -25 42 -41 61
l-29 34 -7 -50 -6 -50 -52 16 c-36 10 -99 15 -216 15 -143 0 -174 -3 -230 -22
-35 -11 -66 -20 -67 -18 -2 2 19 20 47 40 49 35 60 58 29 64 -8 1 -49 -13 -91
-32z m321 -386 c57 -28 105 -50 106 -50 2 0 -1 15 -6 32 -13 48 -13 49 35 22
24 -13 75 -35 114 -48 70 -24 219 -52 228 -43 3 3 -14 21 -37 41 -23 20 -40
38 -37 41 2 3 26 -2 52 -11 51 -18 65 -12 66 29 0 27 17 21 65 -24 28 -26 51
-59 64 -92 23 -64 41 -202 41 -324 l0 -93 -180 0 c-174 0 -182 -1 -203 -22
-20 -20 -33 -23 -102 -23 -71 0 -82 3 -98 23 -18 22 -21 22 -272 22 l-253 0
-20 -27 c-36 -50 -36 -15 0 59 31 64 35 80 31 129 -6 61 10 177 31 240 21 59
56 105 99 130 96 54 145 52 276 -11z m-807 -437 c17 -15 17 -18 2 -34 -15 -16
-14 -17 3 -13 22 6 58 -39 49 -61 -2 -7 2 -19 10 -25 19 -17 19 -70 -1 -70
-11 0 -15 -12 -16 -42 -1 -44 -3 -43 -13 5 -4 18 -13 27 -27 27 -11 0 -22 8
-25 18 -3 9 -12 33 -21 52 -13 29 -17 32 -25 19 -9 -13 -14 -11 -38 13 -16 15
-35 28 -44 28 -13 0 -14 5 -5 27 10 27 10 27 -11 8 -12 -11 -18 -25 -15 -34 3
-8 3 -12 -1 -8 -4 4 -13 -1 -21 -11 -11 -13 -11 -11 1 13 20 41 76 92 106 98
51 9 74 7 92 -10z m163 -47 c73 -110 84 -314 26 -449 -16 -36 -23 -43 -50 -45
-18 -1 -36 0 -40 2 -5 3 1 31 11 63 43 125 31 332 -23 420 l-21 33 41 0 c32 0
44 -5 56 -24z m-278 -71 c29 -20 53 -103 52 -174 l-2 -56 -7 57 c-16 122 -87
156 -127 61 -29 -71 -5 -174 46 -200 54 -26 48 -77 -6 -57 -83 29 -108 269
-37 354 29 34 49 37 81 15z m635 -22 c-22 -9 -42 -60 -42 -108 0 -37 5 -52 28
-74 24 -25 37 -28 118 -34 50 -4 123 -13 163 -22 40 -8 78 -12 84 -8 8 4 7 1
-1 -9 -21 -26 -93 -38 -219 -38 -141 1 -198 11 -226 39 -18 18 -22 36 -25 120
-5 130 1 141 76 140 31 0 51 -3 44 -6z m290 -3 c55 -16 88 -61 88 -120 0 -27
-4 -60 -10 -74 -8 -22 -16 -26 -49 -26 -50 0 -56 9 -26 38 27 26 34 55 23 96
-10 40 -35 64 -79 78 -102 30 -200 -79 -143 -160 15 -22 15 -22 -26 -22 -44 0
-90 33 -90 66 0 27 30 82 55 98 52 34 181 47 257 26z m542 0 c83 -19 135 -121
87 -169 -12 -12 -34 -21 -51 -21 l-31 0 22 30 c47 62 -9 145 -96 145 -91 0
-140 -101 -79 -162 14 -14 23 -27 21 -29 -2 -2 -25 -7 -50 -10 l-47 -7 0 95
c0 103 4 112 57 128 38 11 119 12 167 0z m146 -134 c0 -170 14 -156 -160 -155
-113 0 -187 14 -183 34 3 14 91 33 192 41 70 6 89 11 108 30 34 34 35 120 2
167 l-20 27 31 0 30 0 0 -144z m70 21 c0 -156 -15 -166 -23 -16 -3 67 -4 126
-1 131 16 25 24 -15 24 -115z m-494 3 c3 -93 17 -164 34 -185 26 -32 112 -46
255 -43 l137 3 -4 -115 c-4 -133 -15 -163 -99 -280 -86 -119 -188 -216 -264
-252 -64 -29 -70 -30 -168 -25 -171 8 -344 70 -495 177 -41 28 -72 53 -70 55
2 2 33 -7 69 -20 83 -30 181 -49 212 -41 14 3 30 18 37 35 14 35 -3 76 -47
111 -25 20 -36 22 -105 17 -70 -5 -83 -2 -135 23 -32 15 -89 50 -128 76 -62
44 -70 53 -73 85 -2 26 4 47 23 74 48 72 59 132 65 363 0 6 6 12 14 12 10 0
16 -25 21 -102 13 -184 27 -193 295 -193 198 0 219 4 265 55 17 19 21 39 23
129 3 65 8 109 15 114 7 4 36 6 66 5 l53 -3 4 -75z m-366 55 c14 -17 5 -51
-16 -59 -22 -8 -54 11 -54 32 0 38 46 56 70 27z m558 3 c30 -30 -1 -73 -36
-51 -23 14 -25 29 -7 47 20 19 27 20 43 4z m-1398 -88 c6 -11 7 -20 2 -20 -6
0 -12 9 -15 20 -3 11 -3 20 -1 20 2 0 8 -9 14 -20z m177 -72 c-3 -8 -6 -5 -6
6 -1 11 2 17 5 13 3 -3 4 -12 1 -19z m508 -507 c108 -6 132 -24 39 -29 -58 -3
-158 20 -170 40 -5 8 -2 9 12 3 10 -5 64 -11 119 -14z m-7 -209 c89 -45 168
-74 261 -97 l86 -22 0 -43 c0 -47 17 -63 34 -31 16 30 43 16 34 -18 -18 -75
-76 -111 -180 -111 -129 0 -253 44 -334 117 -35 31 -38 38 -26 52 8 9 25 53
37 99 13 45 25 82 27 82 2 0 29 -13 61 -28z m-148 -101 c0 -5 -3 -17 -6 -25
-6 -15 -8 -15 -19 1 -10 13 -10 20 -2 25 16 10 27 10 27 -1z m1300 -191 c-8
-5 -22 -9 -30 -9 -10 0 -8 3 5 9 27 12 43 12 25 0z m190 -39 c21 -10 17 -11
-25 -6 -28 2 -42 1 -32 -3 17 -7 16 -9 -8 -20 -14 -7 -36 -12 -47 -12 -17 0
-19 -3 -10 -12 14 -14 16 -48 4 -48 -10 0 -72 84 -72 98 0 6 6 13 13 16 19 9
149 -1 177 -13z m-1033 -49 c8 -5 -7 -8 -35 -8 -34 0 -61 -8 -97 -29 -34 -20
-45 -23 -36 -11 35 42 133 70 168 48z m246 -27 l27 -34 -37 -6 c-21 -3 -71
-17 -112 -30 -68 -22 -77 -23 -108 -10 -23 10 -32 19 -27 27 4 7 -14 0 -40
-16 -58 -34 -73 -28 -19 8 70 46 177 83 278 95 6 0 22 -15 38 -34z m593 23 c5
-7 3 -8 -6 -3 -7 4 -1 -10 14 -31 l27 -39 -38 -32 c-21 -18 -56 -40 -78 -50
-22 -10 -45 -23 -52 -29 -13 -13 -101 -27 -115 -18 -5 3 -38 12 -73 19 -90 19
-158 57 -186 102 -13 21 -28 41 -33 45 -7 5 -5 8 4 9 8 0 112 9 230 18 268 23
297 24 306 9z m338 -66 c2 -4 -39 -7 -92 -7 -53 0 -115 -4 -137 -8 -41 -9 -41
6 0 16 34 8 224 7 229 -1z m-71 -39 c-18 -2 -48 -2 -65 0 -18 2 -4 4 32 4 36
0 50 -2 33 -4z m-120 -11 c-18 -11 37 -96 79 -123 l33 -21 -30 6 c-41 9 -105
80 -105 117 0 21 5 29 18 29 12 0 13 -3 5 -8z m-742 -24 c-87 -12 -175 -43
-235 -82 -28 -18 -67 -39 -86 -46 -19 -8 -41 -21 -48 -30 -12 -13 -13 -13 -7
5 5 15 3 17 -5 9 -9 -9 -9 -17 -1 -32 8 -15 4 -28 -19 -66 -25 -39 -33 -46
-54 -40 -22 5 -26 0 -45 -51 -12 -30 -21 -67 -21 -80 0 -14 -5 -25 -11 -25
-18 0 -5 70 24 133 22 48 28 54 49 50 33 -6 67 52 49 85 -7 13 -8 23 -1 27 5
3 15 16 21 28 8 15 -3 8 -32 -18 l-43 -40 29 40 c15 22 40 52 54 68 l25 27 33
-32 32 -31 38 25 c91 60 174 87 263 86 l55 0 -64 -10z m29 -37 c0 -5 3 -18 7
-28 6 -17 5 -17 -15 1 -26 23 -87 16 -177 -19 -52 -21 -57 -22 -35 -5 50 39
220 78 220 51z m-593 -73 c8 -15 4 -158 -5 -173 -12 -19 -20 56 -9 85 9 22 7
33 -7 54 -16 26 -15 46 4 46 5 0 12 -6 17 -12z m-39 -88 c-7 -20 -6 -45 1 -80
6 -28 11 -61 11 -73 0 -22 -1 -22 -20 3 -15 18 -19 34 -15 56 7 39 -2 64 -26
72 -17 7 -16 10 7 40 20 25 29 30 39 22 10 -9 11 -18 3 -40z m-52 -101 c-5
-38 -4 -49 7 -49 18 0 37 -42 37 -80 0 -54 -19 -36 -54 53 -9 22 -22 37 -32
37 -13 0 -15 6 -9 28 9 39 34 74 47 66 6 -4 8 -25 4 -55z m-39 -71 c6 -7 15
-29 22 -48 6 -19 21 -44 32 -56 13 -14 19 -32 17 -50 -3 -28 -4 -27 -50 31
-26 33 -50 72 -53 87 -10 42 11 63 32 36z"/>
<path d="M1327 2316 c-48 -18 -76 -42 -93 -83 -8 -18 -14 -34 -14 -36 0 -3 19
5 43 17 39 19 56 20 213 18 186 -3 188 -3 200 55 l6 30 -84 6 c-128 10 -229 7
-271 -7z"/>
<path d="M1886 2323 l-78 -4 6 -32 c11 -56 18 -58 198 -60 150 -2 168 -4 188
-22 l23 -20 -7 30 c-24 99 -88 120 -330 108z"/>
<path d="M1746 1518 c-119 -11 -182 -27 -202 -49 -17 -19 -17 -20 2 -39 59
-60 281 -88 341 -44 15 11 31 35 35 52 5 18 13 32 18 32 20 0 9 20 -17 33 -40
20 -87 24 -177 15z m149 -22 l30 -13 -30 -9 c-45 -13 -232 -11 -246 3 -8 8 3
13 47 18 33 3 66 8 74 9 36 8 97 4 125 -8z"/>
<path d="M2220 630 c-12 -8 -9 -10 13 -10 15 0 27 5 27 10 0 13 -20 13 -40 0z"/>
</g>
</svg>
